<?xml version="1.0" encoding="utf-8"?>
<svg xmlns="http://www.w3.org/2000/svg">
    <!-- Iconos FrontEnd -->
    <symbol id="html"
            viewBox="0 0 452 520">
        <path fill="#e34f26"
              d="M41 460 0 0h451l-41 460-185 52" />
        <path fill="#ef652a"
              d="m226 472 149-41 35-394H226" />
        <path fill="#ecedee"
              d="M226 208h-75l-5-58h80V94H84l15 171h127zm0 147-64-17-4-45h-56l7 89 117 32z" />
        <path fill="#fff"
              d="M226 265h69l-7 73-62 17v59l115-32 16-174H226zm0-171v56h136l5-56z" />
    </symbol>
    <symbol id="css"
            viewBox="0 0 512 512">
        <path fill="#264de4"
              d="M71.357 460.819 30.272 0h451.456l-41.129 460.746L255.724 512z" />
        <path fill="#2965f1"
              d="m405.388 431.408 35.148-393.73H256v435.146z" />
        <path fill="#ebebeb"
              d="m124.46 208.59 5.065 56.517H256V208.59zm-5.041-57.875H256V94.197H114.281zM256 355.372l-.248.066-62.944-16.996-4.023-45.076h-56.736l7.919 88.741 115.772 32.14.26-.073z" />
        <path fill="#fff"
              d="M255.805 208.59v56.517H325.4l-6.56 73.299-63.035 17.013v58.8l115.864-32.112.85-9.549 13.28-148.792 1.38-15.176 10.203-114.393H255.805v56.518h79.639L330.3 208.59z" />
    </symbol>
    <symbol id="js"
            viewBox="0 0 256 366">
        <svg viewBox="0 0 1052 1052">
            <path fill="#f0db4f"
                  d="M0 0h1052v1052H0z" />
            <path fill="#323330"
                  d="M965.9 801.1c-7.7-48-39-88.3-131.7-125.9-32.2-14.8-68.1-25.399-78.8-49.8-3.8-14.2-4.3-22.2-1.9-30.8 6.9-27.9 40.2-36.6 66.6-28.6 17 5.7 33.1 18.801 42.8 39.7 45.4-29.399 45.3-29.2 77-49.399-11.6-18-17.8-26.301-25.4-34-27.3-30.5-64.5-46.2-124-45-10.3 1.3-20.699 2.699-31 4-29.699 7.5-58 23.1-74.6 44-49.8 56.5-35.6 155.399 25 196.1 59.7 44.8 147.4 55 158.6 96.9 10.9 51.3-37.699 67.899-86 62-35.6-7.4-55.399-25.5-76.8-58.4-39.399 22.8-39.399 22.8-79.899 46.1 9.6 21 19.699 30.5 35.8 48.7 76.2 77.3 266.899 73.5 301.1-43.5 1.399-4.001 10.6-30.801 3.199-72.101m-394-317.6h-98.4c0 85-.399 169.4-.399 254.4 0 54.1 2.8 103.7-6 118.9-14.4 29.899-51.7 26.2-68.7 20.399-17.3-8.5-26.1-20.6-36.3-37.699-2.8-4.9-4.9-8.7-5.601-9-26.699 16.3-53.3 32.699-80 49 13.301 27.3 32.9 51 58 66.399 37.5 22.5 87.9 29.4 140.601 17.3 34.3-10 63.899-30.699 79.399-62.199 22.4-41.3 17.6-91.3 17.4-146.6.5-90.2 0-180.4 0-270.9" />
        </svg>
    </symbol>
    <symbol id="tailwind"
            viewBox="0 0 256 154">
        <defs>
            <linearGradient id="a"
                            x1="-2.778%"
                            x2="100%"
                            y1="32%"
                            y2="67.556%">
                <stop offset="0%"
                      stop-color="#2298BD" />
                <stop offset="100%"
                      stop-color="#0ED7B5" />
            </linearGradient>
        </defs>
        <path fill="url(#a)"
              d="M128 0Q76.8 0 64 51.2 83.2 25.6 108.8 32c9.737 2.434 16.697 9.499 24.401 17.318C145.751 62.057 160.275 76.8 192 76.8q51.2 0 64-51.2-19.2 25.6-44.8 19.2c-9.737-2.434-16.697-9.499-24.401-17.318C174.249 14.743 159.725 0 128 0M64 76.8q-51.2 0-64 51.2 19.2-25.6 44.8-19.2c9.737 2.434 16.697 9.499 24.401 17.318C81.751 138.857 96.275 153.6 128 153.6q51.2 0 64-51.2-19.2 25.6-44.8 19.2c-9.737-2.434-16.697-9.499-24.401-17.318C110.249 91.543 95.725 76.8 64 76.8" />
    </symbol>
    <!-- Iconos BackEnd -->
    <symbol id="mysql"
            viewBox="0 0 256 252">
        <path fill="#00546B"
              d="M236 194c-14 0-25 1-34 5-3 1-7 1-7 4l3 6c2 3 5 8 9 11l11 8 21 10 11 9 6 4-3-6-5-5q-7.5-10.5-18-18c-6-3-18-9-20-15h-1l12-3 18-3 8-2v-2l-9-10c-8-8-18-15-28-22l-18-8c-2-1-6-2-7-4l-7-13-15-30-8-20c-18-30-38-48-68-65-6-4-14-5-22-7l-13-1-8-6C34 5 8-9 1 9c-5 11 7 22 11 28l9 13 3 9c3 8 5 17 9 24l6 10c2 2 4 3 5 6-3 4-3 9-4 13-7 20-4 44 5 59 2 4 9 14 18 10 8-3 6-13 8-22l1-4 8 14c5 9 14 18 22 24 4 3 8 8 13 10l-4-4-9-10c-8-10-14-21-20-32l-7-17-3-6c-3 4-7 7-9 12-3 7-3 17-4 26h-1c-6-1-8-7-10-12-5-12-6-32-1-46 1-4 6-15 4-19-1-3-4-5-6-7l-7-12-10-30-9-13c-3-5-7-8-10-14-1-2-2-5 0-7l2-2c2-2 9 0 11 1 6 3 12 5 17 9l8 6h4c6 1 12 0 17 2 9 3 18 7 25 12 23 14 42 35 54 59 3 4 3 8 5 12l12 26c4 8 7 16 12 23 3 4 14 6 18 8l12 4 18 12c2 2 11 7 12 10" />
        <path fill="#00546B"
              d="m58 43-7 1 6 7 4 9v-1c3-1 4-4 4-8l-2-4z" />
    </symbol>
    <!-- Iconos Aprendiendo -->
    <symbol id="react"
            viewBox="0 0 256 228">
        <path fill="#00D8FF"
              d="M210.483 73.824a172 172 0 0 0-8.24-2.597c.465-1.9.893-3.777 1.273-5.621 6.238-30.281 2.16-54.676-11.769-62.708-13.355-7.7-35.196.329-57.254 19.526a171 171 0 0 0-6.375 5.848 156 156 0 0 0-4.241-3.917C100.759 3.829 77.587-4.822 63.673 3.233 50.33 10.957 46.379 33.89 51.995 62.588a171 171 0 0 0 1.892 8.48c-3.28.932-6.445 1.924-9.474 2.98C17.309 83.498 0 98.307 0 113.668c0 15.865 18.582 31.778 46.812 41.427a146 146 0 0 0 6.921 2.165 168 168 0 0 0-2.01 9.138c-5.354 28.2-1.173 50.591 12.134 58.266 13.744 7.926 36.812-.22 59.273-19.855a146 146 0 0 0 5.342-4.923 168 168 0 0 0 6.92 6.314c21.758 18.722 43.246 26.282 56.54 18.586 13.731-7.949 18.194-32.003 12.4-61.268a145 145 0 0 0-1.535-6.842c1.62-.48 3.21-.974 4.76-1.488 29.348-9.723 48.443-25.443 48.443-41.52 0-15.417-17.868-30.326-45.517-39.844m-6.365 70.984q-2.102.694-4.3 1.345c-3.24-10.257-7.612-21.163-12.963-32.432 5.106-11 9.31-21.767 12.459-31.957 2.619.758 5.16 1.557 7.61 2.4 23.69 8.156 38.14 20.213 38.14 29.504 0 9.896-15.606 22.743-40.946 31.14m-10.514 20.834c2.562 12.94 2.927 24.64 1.23 33.787-1.524 8.219-4.59 13.698-8.382 15.893-8.067 4.67-25.32-1.4-43.927-17.412a157 157 0 0 1-6.437-5.87c7.214-7.889 14.423-17.06 21.459-27.246 12.376-1.098 24.068-2.894 34.671-5.345a134 134 0 0 1 1.386 6.193M87.276 214.515c-7.882 2.783-14.16 2.863-17.955.675-8.075-4.657-11.432-22.636-6.853-46.752a157 157 0 0 1 1.869-8.499c10.486 2.32 22.093 3.988 34.498 4.994 7.084 9.967 14.501 19.128 21.976 27.15a135 135 0 0 1-4.877 4.492c-9.933 8.682-19.886 14.842-28.658 17.94M50.35 144.747c-12.483-4.267-22.792-9.812-29.858-15.863-6.35-5.437-9.555-10.836-9.555-15.216 0-9.322 13.897-21.212 37.076-29.293 2.813-.98 5.757-1.905 8.812-2.773 3.204 10.42 7.406 21.315 12.477 32.332-5.137 11.18-9.399 22.249-12.634 32.792a135 135 0 0 1-6.318-1.979m12.378-84.26c-4.811-24.587-1.616-43.134 6.425-47.789 8.564-4.958 27.502 2.111 47.463 19.835a144 144 0 0 1 3.841 3.545c-7.438 7.987-14.787 17.08-21.808 26.988-12.04 1.116-23.565 2.908-34.161 5.309a160 160 0 0 1-1.76-7.887Zm110.427 27.268a348 348 0 0 0-7.785-12.803c8.168 1.033 15.994 2.404 23.343 4.08-2.206 7.072-4.956 14.465-8.193 22.045a381 381 0 0 0-7.365-13.322m-45.032-43.861c5.044 5.465 10.096 11.566 15.065 18.186a322 322 0 0 0-30.257-.006c4.974-6.559 10.069-12.652 15.192-18.18M82.802 87.83a323 323 0 0 0-7.227 13.238c-3.184-7.553-5.909-14.98-8.134-22.152 7.304-1.634 15.093-2.97 23.209-3.984a322 322 0 0 0-7.848 12.897Zm8.081 65.352c-8.385-.936-16.291-2.203-23.593-3.793 2.26-7.3 5.045-14.885 8.298-22.6a321 321 0 0 0 7.257 13.246c2.594 4.48 5.28 8.868 8.038 13.147m37.542 31.03c-5.184-5.592-10.354-11.779-15.403-18.433 4.902.192 9.899.29 14.978.29 5.218 0 10.376-.117 15.453-.343-4.985 6.774-10.018 12.97-15.028 18.486m52.198-57.817c3.422 7.8 6.306 15.345 8.596 22.52-7.422 1.694-15.436 3.058-23.88 4.071a382 382 0 0 0 7.859-13.026 347 347 0 0 0 7.425-13.565m-16.898 8.101a359 359 0 0 1-12.281 19.815 329 329 0 0 1-23.444.823c-7.967 0-15.716-.248-23.178-.732a310 310 0 0 1-12.513-19.846h.001a307 307 0 0 1-10.923-20.627 310 310 0 0 1 10.89-20.637l-.001.001a307 307 0 0 1 12.413-19.761c7.613-.576 15.42-.876 23.31-.876H128c7.926 0 15.743.303 23.354.883a329 329 0 0 1 12.335 19.695 359 359 0 0 1 11.036 20.54 330 330 0 0 1-11 20.722m22.56-122.124c8.572 4.944 11.906 24.881 6.52 51.026q-.518 2.504-1.15 5.09c-10.622-2.452-22.155-4.275-34.23-5.408-7.034-10.017-14.323-19.124-21.64-27.008a161 161 0 0 1 5.888-5.4c18.9-16.447 36.564-22.941 44.612-18.3M128 90.808c12.625 0 22.86 10.235 22.86 22.86s-10.235 22.86-22.86 22.86-22.86-10.235-22.86-22.86 10.235-22.86 22.86-22.86" />
    </symbol>
    <symbol id="typescript"
            viewBox="0 0 256 256">
        <path fill="#3178C6"
              d="M20 0h216c11.046 0 20 8.954 20 20v216c0 11.046-8.954 20-20 20H20c-11.046 0-20-8.954-20-20V20C0 8.954 8.954 0 20 0" />
        <path fill="#FFF"
              d="M150.518 200.475v27.62q6.738 3.453 15.938 5.179T185.849 235q9.934 0 18.874-1.899t15.678-6.257q6.738-4.359 10.669-11.394 3.93-7.033 3.93-17.391 0-7.51-2.246-13.163a30.75 30.75 0 0 0-6.479-10.055q-4.232-4.402-10.149-7.898-5.918-3.495-13.347-6.602-5.441-2.245-9.761-4.359-4.319-2.115-7.342-4.316-3.024-2.2-4.665-4.661t-1.641-5.567q0-2.848 1.468-5.135c1.468-2.287 2.362-2.834 4.147-3.927q2.677-1.64 6.565-2.547 3.887-.906 8.638-.906 3.456 0 7.299.518 3.844.517 7.732 1.597a54 54 0 0 1 7.558 2.719 41.7 41.7 0 0 1 6.781 3.797v-25.807q-6.306-2.416-13.778-3.582T198.633 107q-9.847 0-18.658 2.115-8.811 2.114-15.506 6.602-6.694 4.49-10.582 11.437Q150 134.102 150 143.769q0 12.342 7.127 21.06t21.638 14.759a292 292 0 0 1 10.625 4.575q4.924 2.244 8.509 4.66t5.658 5.265 2.073 6.474a9.9 9.9 0 0 1-1.296 4.963q-1.295 2.286-3.93 3.97-2.635 1.683-6.565 2.632t-9.2.95q-8.983 0-17.794-3.151t-16.327-9.451m-46.036-68.733H140V109H41v22.742h35.345V233h28.137z" />
    </symbol>
    <symbol id="astro"
            viewBox="0 0 256 366">
        <path fill="#fff"
              d="M182.022 9.147c2.982 3.702 4.502 8.697 7.543 18.687L256 246.074a276.5 276.5 0 0 0-79.426-26.891L133.318 73.008a5.63 5.63 0 0 0-10.802.017L79.784 219.11A276.5 276.5 0 0 0 0 246.04L66.76 27.783c3.051-9.972 4.577-14.959 7.559-18.654a24.54 24.54 0 0 1 9.946-7.358C88.67 0 93.885 0 104.314 0h47.683c10.443 0 15.664 0 20.074 1.774a24.55 24.55 0 0 1 9.95 7.373Z" />
        <path fill="#FF5D01"
              d="M189.972 256.46c-10.952 9.364-32.812 15.751-57.992 15.751-30.904 0-56.807-9.621-63.68-22.56-2.458 7.415-3.009 15.903-3.009 21.324 0 0-1.619 26.623 16.898 45.14 0-9.615 7.795-17.41 17.41-17.41 16.48 0 16.46 14.378 16.446 26.043l-.001 1.041c0 17.705 10.82 32.883 26.21 39.28a35.7 35.7 0 0 1-3.588-15.647c0-16.886 9.913-23.173 21.435-30.48 9.167-5.814 19.353-12.274 26.372-25.232a47.6 47.6 0 0 0 5.742-22.735c0-5.06-.786-9.938-2.243-14.516Z" />
    </symbol>
    <symbol id="nextjs"
            viewBox="0 0 180 180">
        <mask id="a"
              width="180"
              height="180"
              x="0"
              y="0"
              maskUnits="userSpaceOnUse"
              style="mask-type:alpha">
            <circle cx="90"
                    cy="90"
                    r="90"
                    fill="#000" />
        </mask>
        <g mask="url(#a)">
            <circle cx="90"
                    cy="90"
                    r="87"
                    fill="#000"
                    stroke="#fff"
                    stroke-width="6" />
            <path fill="url(#b)"
                  d="M149.508 157.52 69.142 54H54v71.97h12.114V69.384l73.885 95.461a90 90 0 0 0 9.509-7.325" />
            <path fill="url(#c)"
                  d="M115 54h12v72h-12z" />
        </g>
        <defs>
            <linearGradient id="b"
                            x1="109"
                            x2="144.5"
                            y1="116.5"
                            y2="160.5"
                            gradientUnits="userSpaceOnUse">
                <stop stop-color="#fff" />
                <stop offset="1"
                      stop-color="#fff"
                      stop-opacity="0" />
            </linearGradient>
            <linearGradient id="c"
                            x1="121"
                            x2="120.799"
                            y1="54"
                            y2="106.875"
                            gradientUnits="userSpaceOnUse">
                <stop stop-color="#fff" />
                <stop offset="1"
                      stop-color="#fff"
                      stop-opacity="0" />
            </linearGradient>
        </defs>
    </symbol>
    <symbol id="nodejs"
            viewBox="0 0 32 32"
            fill="#8cc84b">
        <path d="M14.656.427c.8-.453 1.82-.455 2.6 0L29.2 7.16c.747.42 1.247 1.253 1.24 2.114v13.5c.005.897-.544 1.748-1.332 2.16l-11.88 6.702a2.6 2.6 0 0 1-2.639-.073l-3.565-2.06c-.243-.145-.516-.26-.688-.495.152-.204.422-.23.642-.32.496-.158.95-.4 1.406-.656.115-.08.256-.05.366.022l3.04 1.758c.217.125.437-.04.623-.145l11.665-6.583c.144-.07.224-.222.212-.38V9.334c.016-.18-.087-.344-.25-.417L16.19 2.244a.41.41 0 0 0-.465-.001L3.892 8.93c-.16.073-.27.235-.25.415v13.37c-.014.158.07.307.215.375l3.162 1.785c.594.32 1.323.5 1.977.265a1.5 1.5 0 0 0 .971-1.409l.003-13.29c-.014-.197.172-.36.363-.34h1.52c.2-.005.357.207.33.405L12.18 23.88c.001 1.188-.487 2.48-1.586 3.063-1.354.7-3.028.553-4.366-.12l-3.4-1.88c-.8-.4-1.337-1.264-1.332-2.16v-13.5a2.46 2.46 0 0 1 1.282-2.141L14.656.427zM18.1 9.785c1.727-.1 3.576-.066 5.13.785 1.203.652 1.87 2.02 1.892 3.358-.034.18-.222.28-.394.267-.5-.001-1.002.007-1.504-.003-.213.008-.336-.188-.363-.376-.144-.64-.493-1.273-1.095-1.582-.924-.463-1.996-.44-3.004-.43-.736.04-1.527.103-2.15.535-.48.328-.624 1-.453 1.522.16.383.603.506.964.62 2.082.544 4.287.5 6.33 1.207.845.292 1.672.86 1.962 1.745.378 1.186.213 2.604-.63 3.556-.684.784-1.68 1.2-2.675 1.442-1.323.295-2.695.302-4.038.17-1.263-.144-2.577-.476-3.552-1.336-.834-.724-1.24-1.852-1.2-2.94.01-.184.193-.312.37-.297h1.5c.202-.014.35.16.36.35.093.6.322 1.25.854 1.6 1.026.662 2.313.616 3.487.635.973-.043 2.065-.056 2.86-.7.42-.367.543-.98.43-1.508-.123-.446-.6-.653-1-.8-2.055-.65-4.285-.414-6.32-1.15-.826-.292-1.625-.844-1.942-1.693-.443-1.2-.24-2.687.693-3.607.9-.915 2.22-1.268 3.47-1.394z" />
    </symbol>
    <symbol id="express"
            viewBox="0 0 32 32">
        <path fill="#fff"
              d="M32 24.795c-1.164.296-1.884.013-2.53-.957l-4.594-6.356-.664-.88-5.365 7.257c-.613.873-1.256 1.253-2.4.944l6.87-9.222-6.396-8.33c1.1-.214 1.86-.105 2.535.88l4.765 6.435 4.8-6.4c.615-.873 1.276-1.205 2.38-.883l-2.48 3.288-3.36 4.375c-.4.5-.345.842.023 1.325zM.008 15.427l.562-2.764C2.1 7.193 8.37 4.92 12.694 8.3c2.527 1.988 3.155 4.8 3.03 7.95H1.48c-.214 5.67 3.867 9.092 9.07 7.346 1.825-.613 2.9-2.042 3.438-3.83.273-.896.725-1.036 1.567-.78-.43 2.236-1.4 4.104-3.45 5.273-3.063 1.75-7.435 1.184-9.735-1.248C1 21.6.434 19.812.18 17.9c-.04-.316-.12-.617-.18-.92q.008-.776.008-1.552zm1.498-.38h12.872c-.084-4.1-2.637-7.012-6.126-7.037-3.83-.03-6.58 2.813-6.746 7.037" />
    </symbol>
    <symbol id="figma"
            viewBox="0 0 54 80">
        <g clip-path="url(#a)">
            <path fill="#0ACF83"
                  d="M13.333 80c7.36 0 13.334-5.973 13.334-13.333V53.334H13.333C5.973 53.334 0 59.307 0 66.667S5.973 80 13.333 80" />
            <path fill="#A259FF"
                  d="M0 40c0-7.36 5.973-13.333 13.333-13.333h13.334v26.666H13.333C5.973 53.333 0 47.36 0 40" />
            <path fill="#F24E1E"
                  d="M0 13.333C0 5.973 5.973 0 13.333 0h13.334v26.667H13.333C5.973 26.667 0 20.693 0 13.333" />
            <path fill="#FF7262"
                  d="M26.667 0H40c7.36 0 13.333 5.973 13.333 13.333S47.36 26.667 40 26.667H26.667z" />
            <path fill="#1ABCFE"
                  d="M53.333 40c0 7.36-5.973 13.333-13.333 13.333S26.667 47.36 26.667 40 32.64 26.667 40 26.667 53.333 32.64 53.333 40" />
        </g>
        <defs>
            <clipPath id="a">
                <path fill="#fff"
                      d="M0 0h53.333v80H0z" />
            </clipPath>
        </defs>
    </symbol>
    <symbol id="python"
            viewBox="16 16 32 32">
        <path fill="#3876a9"
              d="M31.885 16c-8.124 0-7.617 3.523-7.617 3.523l.01 3.65h7.752v1.095H21.197S16 23.678 16 31.876c0 8.196 4.537 7.906 4.537 7.906h2.708v-3.804s-.146-4.537 4.465-4.537h7.688s4.32.07 4.32-4.175v-7.019S40.374 16 31.885 16m-4.275 2.454a1.394 1.394 0 1 1 0 2.79 1.393 1.393 0 0 1-1.395-1.395c0-.771.624-1.395 1.395-1.395" />
        <path fill="#ffd141"
              d="M32.115 47.833c8.124 0 7.617-3.523 7.617-3.523l-.01-3.65H31.97v-1.095h10.832S48 40.155 48 31.958s-4.537-7.906-4.537-7.906h-2.708v3.803s.146 4.537-4.465 4.537h-7.688s-4.32-.07-4.32 4.175v7.019s-.656 4.247 7.833 4.247m4.275-2.454a1.393 1.393 0 0 1-1.395-1.395 1.394 1.394 0 1 1 1.395 1.395" />
    </symbol>
    <symbol id="git"
            viewBox="0 0 256 256">
        <path fill="#DE4C36"
              d="M251.17 116.6 139.4 4.82a16.49 16.49 0 0 0-23.31 0l-23.21 23.2 29.44 29.45a19.57 19.57 0 0 1 24.8 24.96l28.37 28.38a19.61 19.61 0 1 1-11.75 11.06L137.28 95.4v69.64a19.62 19.62 0 1 1-16.13-.57V94.2a19.61 19.61 0 0 1-10.65-25.73L81.46 39.44 4.83 116.08a16.49 16.49 0 0 0 0 23.32L116.6 251.17a16.49 16.49 0 0 0 23.32 0l111.25-111.25a16.5 16.5 0 0 0 0-23.33" />
    </symbol>
    <symbol id="github"
            viewBox="0 0 256 250"
            fill="#fff">
        <path d="M128.001 0C57.317 0 0 57.307 0 128.001c0 56.554 36.676 104.535 87.535 121.46 6.397 1.185 8.746-2.777 8.746-6.158 0-3.052-.12-13.135-.174-23.83-35.61 7.742-43.124-15.103-43.124-15.103-5.823-14.795-14.213-18.73-14.213-18.73-11.613-7.944.876-7.78.876-7.78 12.853.902 19.621 13.19 19.621 13.19 11.417 19.568 29.945 13.911 37.249 10.64 1.149-8.272 4.466-13.92 8.127-17.116-28.431-3.236-58.318-14.212-58.318-63.258 0-13.975 5-25.394 13.188-34.358-1.329-3.224-5.71-16.242 1.24-33.874 0 0 10.749-3.44 35.21 13.121 10.21-2.836 21.16-4.258 32.038-4.307 10.878.049 21.837 1.47 32.066 4.307 24.431-16.56 35.165-13.12 35.165-13.12 6.967 17.63 2.584 30.65 1.255 33.873 8.207 8.964 13.173 20.383 13.173 34.358 0 49.163-29.944 59.988-58.447 63.157 4.591 3.972 8.682 11.762 8.682 23.704 0 17.126-.148 30.91-.148 35.126 0 3.407 2.304 7.398 8.792 6.14C219.37 232.5 256 184.537 256 128.002 256 57.307 198.691 0 128.001 0m-80.06 182.34c-.282.636-1.283.827-2.194.39-.929-.417-1.45-1.284-1.15-1.922.276-.655 1.279-.838 2.205-.399.93.418 1.46 1.293 1.139 1.931m6.296 5.618c-.61.566-1.804.303-2.614-.591-.837-.892-.994-2.086-.375-2.66.63-.566 1.787-.301 2.626.591.838.903 1 2.088.363 2.66m4.32 7.188c-.785.545-2.067.034-2.86-1.104-.784-1.138-.784-2.503.017-3.05.795-.547 2.058-.055 2.861 1.075.782 1.157.782 2.522-.019 3.08Zm7.304 8.325c-.701.774-2.196.566-3.29-.49-1.119-1.032-1.43-2.496-.726-3.27.71-.776 2.213-.558 3.315.49 1.11 1.03 1.45 2.505.701 3.27m9.442 2.81c-.31 1.003-1.75 1.459-3.199 1.033-1.448-.439-2.395-1.613-2.103-2.626.301-1.01 1.747-1.484 3.207-1.028 1.446.436 2.396 1.602 2.095 2.622Zm10.744 1.193c.036 1.055-1.193 1.93-2.715 1.95-1.53.034-2.769-.82-2.786-1.86 0-1.065 1.202-1.932 2.733-1.958 1.522-.03 2.768.818 2.768 1.868m10.555-.405c.182 1.03-.875 2.088-2.387 2.37-1.485.271-2.861-.365-3.05-1.386-.184-1.056.893-2.114 2.376-2.387 1.514-.263 2.868.356 3.061 1.403" />
    </symbol>
    <symbol id="vsc"
            viewBox="0 0 256 254">
        <defs>
            <linearGradient id="b"
                            x1="50%"
                            x2="50%"
                            y1="0%"
                            y2="100%">
                <stop offset="0%"
                      stop-color="#FFF" />
                <stop offset="100%"
                      stop-color="#FFF"
                      stop-opacity="0" />
            </linearGradient>
            <path id="a"
                  d="M180.828 252.605a15.87 15.87 0 0 0 12.65-.486l52.501-25.262a15.94 15.94 0 0 0 9.025-14.364V41.197a15.94 15.94 0 0 0-9.025-14.363l-52.5-25.263a15.88 15.88 0 0 0-18.115 3.084L74.857 96.35l-43.78-33.232a10.614 10.614 0 0 0-13.56.603L3.476 76.494c-4.63 4.211-4.635 11.495-.012 15.713l37.967 34.638-37.967 34.637c-4.623 4.219-4.618 11.502.012 15.714l14.041 12.772a10.614 10.614 0 0 0 13.56.604l43.78-33.233 100.507 91.695a15.85 15.85 0 0 0 5.464 3.571m10.464-183.649-76.262 57.889 76.262 57.888z" />
        </defs>
        <path fill="#0065A9"
              d="M246.135 26.873 193.593 1.575a15.885 15.885 0 0 0-18.123 3.08L3.466 161.482c-4.626 4.219-4.62 11.502.012 15.714l14.05 12.772a10.625 10.625 0 0 0 13.569.604L238.229 33.436c6.949-5.271 16.93-.315 16.93 8.407v-.61a15.94 15.94 0 0 0-9.024-14.36" />
        <path fill="#007ACC"
              d="m246.135 226.816-52.542 25.298a15.89 15.89 0 0 1-18.123-3.08L3.466 92.207c-4.626-4.218-4.62-11.502.012-15.713l14.05-12.773a10.625 10.625 0 0 1 13.569-.603l207.132 157.135c6.949 5.271 16.93.315 16.93-8.408v.611a15.94 15.94 0 0 1-9.024 14.36" />
        <path fill="#1F9CF0"
              d="M193.428 252.134a15.89 15.89 0 0 1-18.125-3.083c5.881 5.88 15.938 1.715 15.938-6.603V11.273c0-8.318-10.057-12.483-15.938-6.602a15.89 15.89 0 0 1 18.125-3.084l52.533 25.263a15.94 15.94 0 0 1 9.03 14.363V212.51c0 6.125-3.51 11.709-9.03 14.363l-52.533 25.262Z" />
        <path fill="url(#b)"
              fill-opacity=".25"
              d="M180.828 252.605a15.87 15.87 0 0 0 12.65-.486l52.5-25.263a15.94 15.94 0 0 0 9.026-14.363V41.197a15.94 15.94 0 0 0-9.025-14.363L193.477 1.57a15.88 15.88 0 0 0-18.114 3.084L74.857 96.35l-43.78-33.232a10.614 10.614 0 0 0-13.56.603L3.476 76.494c-4.63 4.211-4.635 11.495-.012 15.713l37.967 34.638-37.967 34.637c-4.623 4.219-4.618 11.502.012 15.714l14.041 12.772a10.614 10.614 0 0 0 13.56.604l43.78-33.233 100.506 91.695a15.9 15.9 0 0 0 5.465 3.571m10.464-183.65-76.262 57.89 76.262 57.888V68.956Z" />
    </symbol>
    <symbol id="npm"
            viewBox="0 0 128 128">
        <path fill="#cb3837"
              d="M2 38.5h124v43.71H64v7.29H36.44v-7.29H2Zm6.89 36.43h13.78V53.07h6.89v21.86h6.89V45.79H8.89Zm34.44-29.14v36.42h13.78v-7.28h13.78V45.79Zm13.78 7.29H64v14.56h-6.89Zm20.67-7.29v29.14h13.78V53.07h6.89v21.86h6.89V53.07h6.89v21.86h6.89V45.79Z" />
    </symbol>
    <symbol id="pnpm"
            viewBox="0 0 32 32">
        <title>file_type_pnpm</title>
        <path d="M30,10.75H21.251V2H30Z"
              style="fill:#f9ad00" />
        <path d="M20.374,10.75h-8.75V2h8.75Z"
              style="fill:#f9ad00" />
        <path d="M10.749,10.75H2V2h8.749Z"
              style="fill:#f9ad00" />
        <path d="M30,20.375H21.251v-8.75H30Z"
              style="fill:#f9ad00" />
        <path d="M20.374,20.375h-8.75v-8.75h8.75Z"
              style="fill:#fff" />
        <path d="M20.374,30h-8.75V21.25h8.75Z"
              style="fill:#fff" />
        <path d="M30,30H21.251V21.25H30Z"
              style="fill:#fff" />
        <path d="M10.749,30H2V21.25h8.749Z"
              style="fill:#fff" />
    </symbol>
</svg>